<svg width="22.000000" height="20.000000" viewBox="0 0 22 20" fill="none" xmlns="http://www.w3.org/2000/svg" xmlns:xlink="http://www.w3.org/1999/xlink">
	<desc>
			Created with Pixso.
	</desc>
	<defs>
		<clipPath id="clip4_126">
			<rect rx="-0.625000" width="20.750000" height="18.750000" transform="translate(0.625000 0.625000)" fill="white" fill-opacity="0"/>
		</clipPath>
	</defs>
	<rect rx="-0.625000" width="20.750000" height="18.750000" transform="translate(0.625000 0.625000)" fill="#FFFFFF" fill-opacity="0"/>
	<g clip-path="url(#clip4_126)">
		<path d="M11.99 16.73L3.58 9.09C3.34 8.87 3.01 8.75 2.67 8.75C1.95 8.75 1.37 9.27 1.37 9.92C1.37 10.24 1.51 10.54 1.75 10.76L10.16 18.4C10.4 18.62 10.73 18.74 11.07 18.74C11.79 18.75 12.37 18.22 12.37 17.57C12.37 17.25 12.23 16.95 11.99 16.73Z" stroke="#FFFFFF" stroke-opacity="1.000000" stroke-width="1.000000"/>
		<path d="M3.58 12.42C3.34 12.2 3.01 12.08 2.67 12.08C1.95 12.08 1.37 12.61 1.37 13.26C1.37 13.57 1.51 13.87 1.75 14.09L6.49 18.4C6.73 18.62 7.06 18.74 7.41 18.74C8.12 18.75 8.7 18.22 8.7 17.57C8.7 17.25 8.57 16.95 8.32 16.73" stroke="#FFFFFF" stroke-opacity="1.000000" stroke-width="1.000000"/>
		<path d="M3.2 15.41L1.83 16.66L3.66 18.33L5.04 17.08" stroke="#FFFFFF" stroke-opacity="1.000000" stroke-width="1.000000"/>
		<path d="M10 3.26L18.41 10.9C18.65 11.12 18.98 11.24 19.32 11.24C20.04 11.25 20.62 10.72 20.62 10.07C20.62 9.75 20.48 9.45 20.24 9.23L11.83 1.59C11.59 1.37 11.26 1.25 10.92 1.25C10.2 1.25 9.62 1.77 9.62 2.42C9.62 2.74 9.76 3.04 10 3.26Z" stroke="#FFFFFF" stroke-opacity="1.000000" stroke-width="1.000000"/>
		<path d="M18.41 7.57C18.65 7.79 18.98 7.91 19.32 7.91C20.04 7.91 20.62 7.38 20.62 6.73C20.62 6.42 20.48 6.12 20.24 5.9L15.5 1.59C15.26 1.37 14.93 1.25 14.58 1.25C13.87 1.25 13.29 1.77 13.29 2.42C13.29 2.74 13.42 3.04 13.67 3.26" stroke="#FFFFFF" stroke-opacity="1.000000" stroke-width="1.000000"/>
		<path d="M18.79 4.58L20.16 3.33L18.33 1.66L16.95 2.91" stroke="#FFFFFF" stroke-opacity="1.000000" stroke-width="1.000000"/>
		<path d="M6.87 6.25L13.29 6.25" stroke="#FFFFFF" stroke-opacity="1.000000" stroke-width="1.000000"/>
		<path d="M8.7 7.91L15.12 7.91" stroke="#FFFFFF" stroke-opacity="1.000000" stroke-width="1.000000"/>
	</g>
</svg>
