<svg width="59.000000" height="72.000000" viewBox="0 0 59 72" fill="none" xmlns="http://www.w3.org/2000/svg" xmlns:xlink="http://www.w3.org/1999/xlink">
	<desc>
			Created with Pixso.
	</desc>
	<defs/>
	<path d="M50.67 55.53C50.67 56.29 50.01 56.91 49.2 56.91C48.39 56.91 47.72 56.29 47.72 55.53C47.72 54.78 48.39 54.16 49.2 54.16C50.01 54.16 50.67 54.78 50.67 55.53ZM3.9 68L1.13 68L1.13 54.9L3.9 54.9L3.9 60.3L9.52 60.3L9.52 54.9L12.28 54.9L12.28 68L9.52 68L9.52 62.59L3.9 62.59L3.9 68ZM27.69 68L25.01 68L25.01 54.9L27.73 54.9L27.73 59.83L27.81 59.83C28.18 59.03 28.96 58.05 30.61 58.05C32.76 58.05 34.58 59.72 34.58 63.1C34.58 66.38 32.84 68.15 30.6 68.15C29.02 68.15 28.19 67.24 27.81 66.42L27.69 66.42L27.69 68ZM39.13 68L36.44 68L36.44 54.9L39.17 54.9L39.17 59.83L39.25 59.83C39.61 59.03 40.4 58.05 42.04 58.05C44.19 58.05 46.02 59.72 46.02 63.1C46.02 66.38 44.27 68.15 42.04 68.15C40.45 68.15 39.62 67.24 39.25 66.42L39.13 66.42L39.13 68ZM56.1 58.18L57.95 58.18L57.95 60.22L56.1 60.22L56.1 64.98C56.1 65.73 56.47 65.94 57.02 65.94C57.27 65.94 57.56 65.87 57.7 65.85L58.12 67.87C57.85 67.96 57.35 68.1 56.65 68.13C54.67 68.21 53.36 67.26 53.38 65.34L53.38 60.22L52.03 60.22L52.03 58.18L53.38 58.18L53.38 55.83L56.1 55.83L56.1 58.18ZM20.18 66.63C19.7 67.55 18.76 68.18 17.31 68.18C15.44 68.18 14.05 67.2 14.05 65.25C14.05 63.06 15.8 62.41 17.74 62.23C19.45 62.06 20.12 61.98 20.12 61.35L20.12 61.31C20.12 60.5 19.59 60.04 18.66 60.04C17.68 60.04 17.1 60.52 16.91 61.17L14.4 60.96C14.77 59.18 16.32 58.05 18.67 58.05C20.86 58.05 22.84 59.03 22.84 61.37L22.84 68L20.26 68L20.26 66.63L20.18 66.63ZM50.55 68L47.83 68L47.83 58.18L50.55 58.18L50.55 68ZM29.74 60.22C28.41 60.22 27.67 61.33 27.67 63.09C27.67 64.84 28.43 65.99 29.74 65.99C31.07 65.99 31.8 64.8 31.8 63.09C31.8 61.39 31.09 60.22 29.74 60.22ZM41.17 60.22C39.85 60.22 39.11 61.33 39.11 63.09C39.11 64.84 39.86 65.99 41.17 65.99C42.51 65.99 43.24 64.8 43.24 63.09C43.24 61.39 42.52 60.22 41.17 60.22ZM16.65 65.16C16.65 65.91 17.25 66.3 18.09 66.3C19.29 66.3 20.14 65.52 20.14 64.48L20.14 63.44C19.81 63.66 18.84 63.8 18.25 63.89C17.29 64.02 16.65 64.4 16.65 65.16Z" fill="#000000" fill-opacity="1.000000" fill-rule="evenodd"/>
	<rect rx="-0.215686" width="43.568626" height="43.568626" transform="translate(11.215686 0.215686)" fill="#FFFFFF" fill-opacity="0"/>
	<path d="M24.27 20.31C25.09 17.24 28.25 14.09 31.32 13.27L50.45 8.14C53.51 7.32 55.34 9.14 54.51 12.21L49.39 31.34C48.56 34.41 45.41 37.56 42.34 38.38L23.21 43.51C20.14 44.33 18.32 42.51 19.15 39.44L24.27 20.31Z" fill="#B8B8FF" fill-opacity="1.000000" fill-rule="nonzero"/>
	<path d="M16.6 12.64C17.43 9.58 20.58 6.42 23.65 5.6L42.78 0.47C45.85 -0.35 47.67 1.47 46.84 4.54L41.72 23.67C40.9 26.74 37.74 29.89 34.67 30.71L15.54 35.84C12.48 36.66 10.66 34.84 11.48 31.77L16.6 12.64Z" fill="#5051F9" fill-opacity="1.000000" fill-rule="nonzero"/>
</svg>
